<?xml version="1.0" encoding="utf-8"?>
<!-- Generator: Adobe Illustrator 16.0.0, SVG Export Plug-In . SVG Version: 6.00 Build 0)  -->
<!DOCTYPE svg PUBLIC "-//W3C//DTD SVG 1.1//EN" "http://www.w3.org/Graphics/SVG/1.1/DTD/svg11.dtd">
<svg version="1.1" id="Layer_1" xmlns="http://www.w3.org/2000/svg" xmlns:xlink="http://www.w3.org/1999/xlink" x="0px" y="0px"
	 width="250px" height="36px" viewBox="0 0 250 36" enable-background="new 0 0 250 36" xml:space="preserve">
<line fill="none" x1="327.214" y1="100.739" x2="334.176" y2="100.739"/>
<line fill="none" x1="320.79" y1="93.777" x2="327.214" y2="93.777"/>
<g>
	<path d="M24.935,3.347h11.608l-6.209,29.305h-11.61L24.935,3.347z"/>
	<path d="M56.915,3.347h13.923l2.476,17.736h0.081l3.734-17.736h9.417l-6.209,29.305H66.414l-2.396-17.858h-0.081l-3.814,17.858
		h-9.418L56.915,3.347z"/>
	<path d="M106.919,3.347h13.759c11.73,0,14.167,6.289,12.3,14.979c-1.868,8.849-8.809,14.326-17.819,14.326h-14.45L106.919,3.347z
		 M113.494,25.995h1.137c1.866,0,3.085-0.689,4.1-1.867c1.017-1.217,1.704-3.287,2.313-6.129c0.608-2.84,0.771-4.912,0.284-6.128
		c-0.487-1.177-1.422-1.868-3.289-1.868h-1.137L113.494,25.995z"/>
	<path d="M155.459,3.347h17.332c6.291,0,9.578,1.907,8.441,7.426c-0.73,3.371-2.682,5.929-7.31,6.982v0.082
		c2.761,0.243,4.063,1.502,4.144,3.735c0.121,2.516-0.854,6.655-0.445,11.079h-11.367c-0.243-2.19,0.203-5.885,0.324-8.401
		c0.082-1.461-0.527-2.028-2.396-2.028h-1.34l-2.231,10.433h-11.363L155.459,3.347z M165.201,15.563
		c2.229,0,4.058-0.771,4.505-2.963c0.444-2.151-0.935-2.6-3.207-2.6h-1.056l-1.22,5.563H165.201z"/>
	<path d="M208.992,3.347h15.062l3.205,29.305h-12.015l-0.123-4.709h-8.4l-2.193,4.709h-11.121L208.992,3.347z M214.917,20.8
		l0.042-11.042h-0.081L209.966,20.8H214.917z"/>
</g>
</svg>
