<?xml version="1.0" encoding="utf-8"?>
<!-- Generator: Adobe Illustrator 16.0.0, SVG Export Plug-In . SVG Version: 6.00 Build 0)  -->
<!DOCTYPE svg PUBLIC "-//W3C//DTD SVG 1.1//EN" "http://www.w3.org/Graphics/SVG/1.1/DTD/svg11.dtd">
<svg version="1.1" id="Layer_1" xmlns="http://www.w3.org/2000/svg" xmlns:xlink="http://www.w3.org/1999/xlink" x="0px" y="0px"
	 width="250px" height="36px" viewBox="54.5 42 250 36" enable-background="new 54.5 42 250 36" xml:space="preserve">
<line fill="none" x1="327.214" y1="100.739" x2="334.176" y2="100.739"/>
<line fill="none" x1="320.79" y1="93.777" x2="327.214" y2="93.777"/>
<g>
	<path fill="#FFFFFF" d="M64.927,45.347h11.608l-6.209,29.305h-11.61L64.927,45.347z"/>
	<path fill="#FFFFFF" d="M96.907,45.347h13.923l2.476,17.737h0.081l3.734-17.737h9.417l-6.209,29.305h-13.923l-2.395-17.859h-0.081
		l-3.814,17.859h-9.418L96.907,45.347z"/>
	<path fill="#FFFFFF" d="M146.911,45.347h13.759c11.73,0,14.167,6.29,12.3,14.978c-1.868,8.849-8.809,14.327-17.82,14.327H140.7
		L146.911,45.347z M153.486,67.996h1.137c1.866,0,3.085-0.689,4.099-1.867c1.016-1.217,1.705-3.287,2.314-6.129
		c0.609-2.84,0.771-4.912,0.284-6.128c-0.487-1.177-1.421-1.868-3.289-1.868h-1.136L153.486,67.996z"/>
	<path fill="#FFFFFF" d="M195.451,45.347h17.332c6.291,0,9.578,1.908,8.441,7.427c-0.73,3.37-2.68,5.927-7.308,6.982v0.082
		c2.761,0.243,4.062,1.502,4.142,3.735c0.121,2.516-0.854,6.656-0.445,11.08h-11.367c-0.243-2.191,0.203-5.885,0.325-8.402
		c0.081-1.461-0.528-2.029-2.395-2.029h-1.34l-2.232,10.432H189.24L195.451,45.347z M205.194,57.564c2.23,0,4.057-0.771,4.504-2.963
		c0.445-2.151-0.934-2.598-3.207-2.598h-1.056l-1.218,5.561H205.194z"/>
	<path fill="#FFFFFF" d="M248.985,45.347h15.061l3.205,29.305h-12.015l-0.123-4.709h-8.4l-2.193,4.709h-11.121L248.985,45.347z
		 M254.909,62.801l0.042-11.042h-0.081l-4.912,11.042H254.909z"/>
</g>
</svg>
